<?xml version="1.0" encoding="UTF-8"?>
<svg width="5px" height="3px" viewBox="0 0 5 3" version="1.1" xmlns="http://www.w3.org/2000/svg" xmlns:xlink="http://www.w3.org/1999/xlink">
    <!-- Generator: Sketch 55.2 (78181) - https://sketchapp.com -->
    <title>language-arrow</title>
    <desc>Created with Sketch.</desc>
    <g id="Page-1" stroke="none" stroke-width="1" fill="none" fill-rule="evenodd">
        <g id="Nav" transform="translate(-1174.000000, -43.000000)" fill-rule="nonzero">
            <g id="编组-4">
                <g id="编组-2" transform="translate(1158.000000, 32.000000)">
                    <g id="language-arrow" transform="translate(14.000000, 8.000000)">
                        <rect id="矩形" fill="#000000" opacity="0" x="0" y="0" width="8" height="8"></rect>
                        <path d="M6.76934396,4.22104126 L4.93557641,5.83576417 C4.81518744,5.94194402 4.66224983,6.00017103 4.50419967,6 C4.34621195,6.00009975 4.19334977,5.94187898 4.07298948,5.83576417 L2.23922194,4.22104126 C2.05549653,4.06196835 1.96818966,3.81292798 2.01051286,3.56865511 C2.05283605,3.32438225 2.21828374,3.12242455 2.44391961,3.03960674 C2.66955547,2.95678892 2.92069659,3.00584108 3.10180887,3.16810376 L4.50419967,4.40306457 L5.90675703,3.16810376 C6.1875013,2.92503009 6.60474306,2.96208801 6.84152934,3.25112688 C7.07831562,3.54016576 7.04609521,3.9730934 6.76934396,4.22104126 L6.76934396,4.22104126 Z" id="路径" fill="#EEEEEE"></path>
                    </g>
                </g>
            </g>
        </g>
    </g>
</svg>