<?xml version="1.0" encoding="UTF-8"?>
<svg width="14px" height="14px" viewBox="0 0 14 14" version="1.1" xmlns="http://www.w3.org/2000/svg" xmlns:xlink="http://www.w3.org/1999/xlink">
    <!-- Generator: Sketch 55.2 (78181) - https://sketchapp.com -->
    <title>language-en</title>
    <desc>Created with Sketch.</desc>
    <g id="Page-1" stroke="none" stroke-width="1" fill="none" fill-rule="evenodd">
        <g id="Nav" transform="translate(-1159.000000, -59.000000)" fill-rule="nonzero">
            <g id="编组-4">
                <g id="language-en" transform="translate(1158.000000, 58.000000)">
                    <rect id="矩形" fill="#000000" opacity="0" x="0" y="0" width="16" height="16"></rect>
                    <path d="M10.906,9.344 L13.156,9.344 C13.2808889,8.76044445 13.3433333,8.31244445 13.3433333,8 C13.3433333,7.68755555 13.2808889,7.23955555 13.156,6.656 L10.906,6.656 C10.9686667,7.09333333 11,7.54133333 11,8 C11,8.45866667 10.9686667,8.90666667 10.906,9.344 Z M9.71866667,13.0313333 C10.9893333,12.6144444 11.958,11.8226667 12.6246667,10.656 L10.656,10.656 C10.4475556,11.4893333 10.1351111,12.2811111 9.71866667,13.0313333 Z M9.56266667,9.344 C9.62533334,8.90666667 9.65666667,8.45866667 9.65666667,8 C9.65666667,7.54133333 9.62533334,7.09333333 9.56266667,6.656 L6.43733334,6.656 C6.37466668,7.09333333 6.34333334,7.54133333 6.34333334,8 C6.34333334,8.45866667 6.37466668,8.90666667 6.43733334,9.344 L9.56266667,9.344 Z M8,13.3126667 C8.58355555,12.4584445 9.01066666,11.5731111 9.28133333,10.6566667 L6.71866666,10.6566667 C6.98933332,11.5735556 7.41644443,12.4588889 7.99999998,13.3126667 L8,13.3126667 Z M5.344,5.344 C5.55244445,4.51066667 5.86488889,3.71888889 6.28133333,2.96866667 C5.01066666,3.38555556 4.04199999,4.17733333 3.37533333,5.344 L5.344,5.344 Z M3.37533333,10.656 C4.04199999,11.8226667 5.01066666,12.6144444 6.28133333,13.0313333 C5.86444444,12.2811111 5.552,11.4893333 5.344,10.656 L3.37533333,10.656 Z M2.844,9.344 L5.094,9.344 C5.03133333,8.90666667 5,8.45866667 5,8 C5,7.54133333 5.03133333,7.09333333 5.094,6.656 L2.844,6.656 C2.71911111,7.23955555 2.65666667,7.68755555 2.65666667,8 C2.65666667,8.31244445 2.71911111,8.76044445 2.844,9.344 Z M8,2.68733333 C7.41644445,3.54155555 6.98933334,4.42688888 6.71866667,5.34333333 L9.28133334,5.34333333 C9.01066668,4.42644444 8.58355557,3.54111111 8.00000002,2.68733333 L8,2.68733333 Z M12.6253333,5.344 C11.9586667,4.17733333 10.99,3.38555556 9.71933333,2.96866667 C10.1362222,3.71888889 10.4486667,4.51066667 10.6566667,5.344 L12.6253333,5.344 Z M8,1.344 C9.83333333,1.344 11.4011111,1.99511111 12.7033333,3.29733333 C14.0055555,4.59955555 14.6566667,6.16733332 14.6566667,8.00066666 C14.6566667,9.83399999 14.0055555,11.4017778 12.7033333,12.704 C11.4011111,14.0062222 9.83333333,14.6573333 8,14.6573333 C6.16666667,14.6573333 4.59888889,14.0062222 3.29666667,12.704 C1.99444445,11.4017778 1.34333334,9.83399999 1.34333334,8.00066666 C1.34333334,6.16733332 1.99444445,4.59955555 3.29666667,3.29733333 C4.59888889,1.99511111 6.16666667,1.344 8,1.344 Z" id="形状" fill="#EEEEEE"></path>
                </g>
            </g>
        </g>
    </g>
</svg>