<?xml version="1.0" encoding="UTF-8"?>
<svg width="226px" height="90px" viewBox="0 0 226 90" version="1.1" xmlns="http://www.w3.org/2000/svg" xmlns:xlink="http://www.w3.org/1999/xlink">
    <!-- Generator: Sketch 55.2 (78181) - https://sketchapp.com -->
    <title>logo</title>
    <desc>Created with Sketch.</desc>
    <g id="Page-1" stroke="none" stroke-width="1" fill="none" fill-rule="evenodd">
        <g id="Nav" transform="translate(-91.000000, -30.000000)">
            <g id="编组-4">
                <g id="logo" transform="translate(90.000000, 30.000000)">
                    <path d="M117.559281,9 C121.307089,9 124.905441,10.0436485 127.538462,12.263194 L123.254903,19.4173646 C121.780771,18.024771 119.772521,17.1667485 117.559281,17.1667485 C113.038065,17.1667485 109.371927,20.7438338 109.371927,25.1534478 C109.371927,29.5638585 113.038065,33.1409438 117.559281,33.1409438 C119.772521,33.1409438 121.780771,32.2829213 123.254903,30.8903278 L127.538462,38.0444983 C124.905441,40.2640438 121.307089,41.3076923 117.559281,41.3076923 C108.415579,41.3076923 101,34.073854 101,25.1534478 C101,16.2338383 108.415579,9 117.559281,9 Z M220.955939,40.1103749 L221,40.1538462 L210.015262,40.1538462 L200.540604,27.1309835 L200.540604,40.1538462 L192.153846,40.1538462 L192.153846,10.1538462 L200.540604,10.1538462 L200.540604,22.7951278 L210.10098,10.1538462 L220.705995,10.1538462 L208.884904,24.6499015 L220.955939,40.1538462 L220.955939,40.1103749 Z M188.692308,40.1103749 L188.692308,40.1538462 L180.262464,40.1538462 L180.262464,28.6911187 L169.430649,28.6911187 L169.430649,40.1538462 L161,40.1538462 L161,10.1538462 L169.430649,10.1538462 L169.430649,21.4434936 L180.262464,21.4434936 L180.262464,10.1538462 L188.692308,10.1538462 L188.692308,40.1538462 L188.692308,40.1103749 Z M142.336273,9 C145.945772,9 149.412087,10.0436485 151.948492,12.263194 L147.8229,19.4173646 C146.40286,18.024771 144.468301,17.1667485 142.336273,17.1667485 C137.980957,17.1667485 134.449344,20.7438338 134.449344,25.1534478 C134.449344,29.2157101 137.44441,32.5697255 141.319823,33.0748195 L141.342638,33.0780062 C141.401642,33.0851763 141.45986,33.0923464 141.518865,33.0987198 L141.540893,33.1003132 C141.601471,33.1066866 141.662835,33.1122633 141.7242,33.1170434 L141.733641,33.1178401 C141.798939,33.1226202 141.864237,33.1274002 141.929536,33.1305869 L141.930322,33.1305869 L141.931896,33.1305869 C142.065639,33.1369604 142.200169,33.1409438 142.336273,33.1409438 C142.355941,33.1409438 142.376396,33.1401471 142.396064,33.1401471 C142.411012,33.1401471 142.42596,33.1401471 142.441694,33.1401471 L142.506206,33.1385537 C142.521154,33.1385537 142.537675,33.137757 142.553409,33.137757 C142.574651,33.1369604 142.595893,33.1361637 142.616347,33.135367 C142.632869,33.1345703 142.64939,33.1337737 142.665911,33.1337737 C142.685579,33.132977 142.706821,33.1321803 142.727276,33.1313836 C142.744584,33.1305869 142.760318,33.1289936 142.777626,33.1281969 C142.814602,33.1266036 142.851579,33.1234168 142.889341,33.1210268 C142.905863,33.1202301 142.92081,33.1186368 142.936545,33.1178401 C142.957787,33.1162467 142.978241,33.1146534 142.999483,33.11306 C143.014431,33.1114667 143.030165,33.1098733 143.0459,33.10828 C143.067141,33.1066866 143.088383,33.1042966 143.108838,33.1027032 C143.124572,33.1011098 143.13952,33.0995165 143.154468,33.0979231 C143.17571,33.0955331 143.197738,33.0939397 143.218193,33.0915497 L143.257529,33.0867696 C143.303159,33.0811929 143.348789,33.0756161 143.394419,33.0692427 C143.402287,33.0676494 143.410941,33.0668527 143.419595,33.066056 L143.491187,33.0556992 L143.526589,33.0501224 C143.549405,33.0469357 143.573006,33.0429523 143.596608,33.0389689 L143.629651,33.0333922 C143.654039,33.0294088 143.678428,33.0254254 143.702029,33.021442 L143.71383,33.019052 C143.770475,33.0086952 143.827906,32.9983384 143.88455,32.9863882 L143.894777,32.9847948 C143.920739,32.9792181 143.945914,32.974438 143.970303,32.9688613 L143.997838,32.9632845 C144.0238,32.9577078 144.048189,32.952131 144.073364,32.9465543 L144.096179,32.9409775 C144.211828,32.9138905 144.32669,32.8844134 144.440765,32.8525462 L144.45886,32.8477662 C144.485609,32.8405961 144.512357,32.8326293 144.538319,32.8246625 L144.55248,32.8206791 C144.671276,32.7856253 144.786925,32.7481814 144.90336,32.7075508 L144.907294,32.7059574 C144.936403,32.6963973 144.965511,32.6860405 144.993834,32.6756837 L144.995407,32.674887 C146.062994,32.2877014 147.024374,31.6734625 147.8229,30.8903278 C148.180074,30.540586 148.504205,30.1565871 148.790574,29.7439078 L142.336273,29.7439078 L142.336273,23.1968061 L158.692308,23.1968061 C158.692308,26.5818919 157.912662,30.0410688 156.273125,33.0150686 C155.189017,34.9804738 153.711545,36.693332 151.948492,38.0444983 C149.417594,40.2592638 145.959933,41.3029122 142.358301,41.3076923 C142.351221,41.3076923 142.343353,41.3076923 142.336273,41.3076923 C142.208037,41.3076923 142.079014,41.306099 141.951564,41.3021156 C141.929536,41.3021156 141.907507,41.3013189 141.885479,41.3005222 C141.794219,41.2981322 141.702172,41.2949455 141.610912,41.2901654 C141.529092,41.286182 141.448059,41.2821986 141.367026,41.2766219 L141.311956,41.2734351 C132.980527,40.7380674 126.384615,33.7249089 126.384615,25.1534478 C126.384615,16.2338383 133.528088,9 142.336273,9 Z" id="形状结合" fill="#F9F9F9"></path>
                    <path d="M192.216503,51.0285396 L194.187778,51.0285396 C194.830793,51.0285396 195.334368,50.8748421 195.696114,50.5600892 C196.05786,50.2453363 196.241123,49.7899666 196.241123,49.1972501 C196.241123,48.5791899 196.051486,48.1074693 195.680178,47.7755481 C195.307277,47.4444444 194.820434,47.2784838 194.220446,47.2784838 L192.216503,47.2784838 L192.216503,51.0285396 Z M194.58777,45.2223709 C195.287357,45.2223709 195.912843,45.3229283 196.457055,45.5232256 C197.002861,45.7227053 197.44827,46.0006689 197.793283,46.3546637 C198.139093,46.7086585 198.395662,47.1215162 198.568567,47.5956893 C198.740675,48.07068 198.828322,48.5930881 198.828322,49.163731 C198.828322,49.5512449 198.778921,49.9166852 198.685696,50.2592345 C198.59008,50.6017837 198.472951,50.8993683 198.327137,51.1495355 C198.18212,51.4021553 198.012403,51.6269788 197.817984,51.8272761 C197.623566,52.0259383 197.429147,52.1861761 197.240306,52.3071721 C197.051466,52.4248978 196.862625,52.5262728 196.673784,52.6047566 L199.076923,57.453586 L196.257059,57.453586 L194.187778,53.0012635 L192.216503,53.0012635 L192.216503,57.453586 L189.727309,57.453586 L189.727309,45.2223709 L194.58777,45.2223709 Z M177.552254,52.1273133 L177.552254,50.6361204 C177.552254,48.88822 178.008819,47.5114827 178.928322,46.5091787 C179.846232,45.5036046 181.113139,45 182.726652,45 C184.338572,45 185.603886,45.5060572 186.515421,46.5173541 C187.426957,47.5253809 187.884318,48.8996656 187.884318,50.6361204 L187.884318,52.1273133 C187.884318,53.8490524 187.424566,55.2086213 186.507453,56.2035674 C185.59034,57.197696 184.322636,57.6923077 182.70992,57.6923077 C181.094813,57.6923077 179.832686,57.197696 178.920354,56.2035674 C178.006428,55.2086213 177.552254,53.8490524 177.552254,52.1273133 L177.552254,52.1273133 Z M180.121924,50.6017837 L180.121924,52.1273133 C180.121924,53.2113712 180.355385,54.0379041 180.823105,54.6020067 C181.291621,55.1669268 181.9187,55.4506132 182.70992,55.4506132 C183.501139,55.4506132 184.131405,55.1669268 184.603906,54.6020067 C185.078,54.0379041 185.313852,53.2113712 185.313852,52.1273133 L185.313852,50.6017837 C185.313852,49.5177258 185.078,48.6830175 184.603906,48.1017466 C184.131405,47.5172055 183.501139,47.2286139 182.70992,47.2286139 C181.929856,47.2286139 181.305964,47.5172055 180.83187,48.1017466 C180.357776,48.6830175 180.121924,49.5177258 180.121924,50.6017837 L180.121924,50.6017837 Z M171.298196,57.453586 L168.760398,57.453586 L168.760398,45.2223709 L176.474985,45.2223709 L176.474985,47.4329989 L171.298196,47.4329989 L171.298196,50.5854329 L176.023201,50.5854329 L176.023201,52.7257525 L171.298196,52.7257525 L171.298196,57.453586 Z M155.757471,51.0285396 L157.729543,51.0285396 C158.371761,51.0285396 158.876133,50.8748421 159.237082,50.5600892 C159.598828,50.2453363 159.782091,49.7899666 159.782091,49.1972501 C159.782091,48.5791899 159.594047,48.1074693 159.221146,47.7755481 C158.848246,47.4444444 158.361403,47.2784838 157.762211,47.2784838 L155.757471,47.2784838 L155.757471,51.0285396 Z M158.128738,45.2223709 C158.829919,45.2223709 159.453811,45.3229283 159.998023,45.5232256 C160.543829,45.7227053 160.990035,46.0006689 161.335048,46.3546637 C161.680061,46.7086585 161.937427,47.1215162 162.109535,47.5956893 C162.28244,48.07068 162.370087,48.5930881 162.370087,49.163731 C162.370087,49.5512449 162.319889,49.9166852 162.226664,50.2592345 C162.131048,50.6017837 162.013919,50.8993683 161.868902,51.1495355 C161.723088,51.4021553 161.554167,51.6269788 161.358952,51.8272761 C161.164534,52.0259383 160.970115,52.1861761 160.782071,52.3071721 C160.593231,52.4248978 160.403593,52.5262728 160.214752,52.6047566 L162.618688,57.453586 L159.798027,57.453586 L157.729543,53.0012635 L155.757471,53.0012635 L155.757471,57.453586 L153.269074,57.453586 L153.269074,45.2223709 L158.128738,45.2223709 Z M151.310548,55.2789298 L151.310548,57.453586 L143.529827,57.453586 L143.529827,45.2223709 L151.310548,45.2223709 L151.310548,47.3994797 L146.034956,47.3994797 L146.034956,50.2764028 L151.009358,50.2764028 L151.009358,52.2981791 L146.034956,52.2981791 L146.034956,55.2789298 L151.310548,55.2789298 Z M138.980914,57.453586 L136.462239,57.453586 L136.462239,47.4673356 L133.122067,47.4673356 L133.122067,45.2223709 L142.337819,45.2223709 L142.337819,47.4673356 L138.980914,47.4673356 L138.980914,57.453586 Z M124.667256,57.453586 L122.280053,57.453586 L122.280053,45.2223709 L124.352521,45.2223709 L129.441662,52.8802676 L129.543652,52.8802676 L129.543652,45.2223709 L131.914123,45.2223709 L131.914123,57.453586 L129.860777,57.453586 L124.768449,49.7450019 L124.667256,49.7450019 L124.667256,57.453586 Z M120.322323,55.2789298 L120.322323,57.453586 L112.540805,57.453586 L112.540805,45.2223709 L120.322323,45.2223709 L120.322323,47.3994797 L115.045137,47.3994797 L115.045137,50.2764028 L120.020337,50.2764028 L120.020337,52.2981791 L115.045137,52.2981791 L115.045137,55.2789298 L120.322323,55.2789298 Z M103.554531,50.6361204 L103.554531,52.0741732 C103.554531,53.1721293 103.77604,54.0011148 104.222246,54.5684876 C104.666062,55.1334077 105.284376,55.4138239 106.073205,55.4138239 C106.799087,55.4138239 107.360032,55.2004459 107.760024,54.7736901 C108.162407,54.3436641 108.362403,53.7983649 108.362403,53.1361576 L110.782274,53.1361576 L110.782274,53.4280193 C110.782274,54.6167224 110.355191,55.6247492 109.503416,56.4504645 C108.65164,57.27945 107.493894,57.6923077 106.023804,57.6923077 C104.443756,57.6923077 103.211908,57.197696 102.327463,56.2035674 C101.439832,55.2086213 101,53.8327016 101,52.0741732 L101,50.6361204 C101,48.8767744 101.443019,47.4975845 102.335431,46.5001858 C103.225454,45.5003344 104.460489,45 106.040537,45 C107.477161,45 108.625346,45.4136752 109.48748,46.2426607 C110.349614,47.0708287 110.782274,48.1074693 110.782274,49.3517651 L110.782274,49.6436269 L108.362403,49.6436269 C108.362403,48.980602 108.156829,48.4189521 107.742495,47.9554069 C107.332144,47.4918618 106.768809,47.262133 106.056473,47.262133 C105.289954,47.262133 104.679608,47.5539948 104.230214,48.1352657 C103.779227,48.7165366 103.554531,49.5512449 103.554531,50.6361204 L103.554531,50.6361204 Z" id="Fill-9" fill="#F9F9F9"></path>
                    <path d="M157.528072,77.2890024 L156.079085,77.2890024 C156.033529,76.9594043 155.884075,76.6995142 155.636317,76.5093323 C155.386161,76.3191504 155.073665,76.2244383 154.69963,76.2244383 C154.232885,76.2244383 153.861248,76.3759776 153.586316,76.6820872 C153.310585,76.9881968 153.173119,77.4390264 153.173119,78.0368493 L153.173119,78.8400081 C153.173119,79.4067654 153.296998,79.8575951 153.546355,80.190224 C153.796511,80.5243684 154.184133,80.6895463 154.71002,80.6895463 C155.136804,80.6895463 155.479669,80.582711 155.739416,80.3675251 C155.999962,80.1530969 156.128636,79.890176 156.128636,79.5780049 L156.128636,79.2234027 L154.747583,79.2234027 L154.747583,78.1580808 L157.538462,78.1580808 L157.538462,79.4757158 C157.538462,79.705298 157.50969,79.9318494 157.448949,80.1530969 C157.389007,80.3735867 157.287506,80.5910457 157.144446,80.807747 C156.998188,81.0221753 156.819962,81.2123572 156.60737,81.3775351 C156.392379,81.5411977 156.122243,81.6745523 155.793763,81.7745683 C155.464484,81.8738266 155.097642,81.9230769 154.690039,81.9230769 C154.178538,81.9230769 153.72538,81.8465495 153.334561,81.690464 C152.942943,81.5343784 152.62805,81.3161617 152.388284,81.0350561 C152.147719,80.7554659 151.970292,80.4311717 151.852007,80.0644463 C151.732124,79.6969633 151.67458,79.2923532 151.67458,78.8498581 L151.67458,78.0285147 C151.67458,77.1056398 151.943118,76.3699161 152.482592,75.8221012 C153.020468,75.2742863 153.76614,75 154.719611,75 C155.165576,75 155.569981,75.0636465 155.931229,75.1909396 C156.291677,75.3182327 156.584192,75.4917453 156.809572,75.7092043 C157.032555,75.9281787 157.206785,76.1721572 157.331463,76.4434127 C157.455343,76.7146682 157.521678,76.9965314 157.528072,77.2890024 L157.528072,77.2890024 Z M146.307814,81.7919954 L144.897989,81.7919954 L144.897989,75.1212315 L146.122395,75.1212315 L149.126665,79.297657 L149.185807,79.297657 L149.185807,75.1212315 L150.586042,75.1212315 L150.586042,81.7919954 L149.373624,81.7919954 L146.367756,77.5882927 L146.307814,77.5882927 L146.307814,81.7919954 Z M137.710598,78.8869853 L137.710598,78.0739765 C137.710598,77.1207937 137.980735,76.3699161 138.524205,75.8221012 C139.064478,75.2742863 139.813348,75 140.765219,75 C141.71789,75 142.464362,75.2758017 143.002238,75.8274051 C143.540113,76.377493 143.81025,77.1268553 143.81025,78.0739765 L143.81025,78.8869853 C143.81025,79.8265295 143.538515,80.5683148 142.996643,81.1108258 C142.45637,81.6533368 141.7075,81.9230769 140.755629,81.9230769 C139.802159,81.9230769 139.057285,81.6533368 138.51861,81.1108258 C137.978337,80.5683148 137.710598,79.8265295 137.710598,78.8869853 L137.710598,78.8869853 Z M139.229118,78.0557918 L139.229118,78.8869853 C139.229118,79.4795043 139.365784,79.9288186 139.642315,80.2379589 C139.918845,80.5455839 140.288884,80.7001541 140.755629,80.7001541 C141.223173,80.7001541 141.594011,80.5455839 141.874538,80.2379589 C142.154265,79.9288186 142.293329,79.4795043 142.293329,78.8869853 L142.293329,78.0557918 C142.293329,77.4632727 142.154265,77.0086546 141.874538,76.6919373 C141.594011,76.3729469 141.223173,76.2153459 140.755629,76.2153459 C140.295278,76.2153459 139.926837,76.3729469 139.64711,76.6919373 C139.367383,77.0086546 139.229118,77.4632727 139.229118,78.0557918 L139.229118,78.0557918 Z M137.282216,75.1212315 L134.787849,78.0080568 L137.38052,81.7919954 L135.59666,81.7919954 L133.693716,78.9900321 L133.003189,79.7181788 L133.003189,81.7919954 L131.504651,81.7919954 L131.504651,75.1212315 L133.003189,75.1212315 L133.003189,78.0285147 L133.072721,78.0285147 L135.655802,75.1212315 L137.282216,75.1212315 Z M127.733129,77.2890024 L126.283343,77.2890024 C126.238586,76.9594043 126.089132,76.6995142 125.840575,76.5093323 C125.592017,76.3191504 125.277923,76.2244383 124.904687,76.2244383 C124.437942,76.2244383 124.065506,76.3759776 123.791373,76.6820872 C123.514043,76.9881968 123.377377,77.4390264 123.377377,78.0368493 L123.377377,78.8400081 C123.377377,79.4067654 123.502055,79.8575951 123.750613,80.190224 C124.001568,80.5243684 124.388391,80.6895463 124.914278,80.6895463 C125.341062,80.6895463 125.683927,80.582711 125.943674,80.3675251 C126.20422,80.1530969 126.333694,79.890176 126.333694,79.5780049 L126.333694,79.2234027 L124.95344,79.2234027 L124.95344,78.1580808 L127.742719,78.1580808 L127.742719,79.4757158 C127.742719,79.705298 127.713148,79.9318494 127.654006,80.1530969 C127.594064,80.3735867 127.492563,80.5910457 127.347905,80.807747 C127.203246,81.0221753 127.025019,81.2123572 126.811628,81.3775351 C126.597436,81.5411977 126.3273,81.6745523 125.99882,81.7745683 C125.669541,81.8738266 125.302699,81.9230769 124.895097,81.9230769 C124.381997,81.9230769 123.929638,81.8465495 123.539619,81.690464 C123.147201,81.5343784 122.832308,81.3161617 122.593341,81.0350561 C122.352776,80.7554659 122.175349,80.4311717 122.056265,80.0644463 C121.937181,79.6969633 121.879637,79.2923532 121.879637,78.8498581 L121.879637,78.0285147 C121.879637,77.1056398 122.146577,76.3699161 122.68685,75.8221012 C123.225525,75.2742863 123.970398,75 124.923869,75 C125.370633,75 125.774239,75.0636465 126.136286,75.1909396 C126.496735,75.3182327 126.789249,75.4917453 127.01383,75.7092043 C127.237612,75.9281787 127.411043,76.1721572 127.535721,76.4434127 C127.6604,76.7146682 127.726735,76.9965314 127.733129,77.2890024 L127.733129,77.2890024 Z M116.512871,81.7919954 L115.103046,81.7919954 L115.103046,75.1212315 L116.326653,75.1212315 L119.330923,79.297657 L119.390865,79.297657 L119.390865,75.1212315 L120.7903,75.1212315 L120.7903,81.7919954 L119.578681,81.7919954 L116.572813,77.5882927 L116.512871,77.5882927 L116.512871,81.7919954 Z M107.915656,78.8869853 L107.915656,78.0739765 C107.915656,77.1207937 108.185792,76.3699161 108.727664,75.8221012 C109.269535,75.2742863 110.018405,75 110.970277,75 C111.922148,75 112.66862,75.2758017 113.207295,75.8274051 C113.74517,76.377493 114.015307,77.1268553 114.015307,78.0739765 L114.015307,78.8869853 C114.015307,79.8265295 113.743572,80.5683148 113.2025,81.1108258 C112.660628,81.6533368 111.912558,81.9230769 110.959887,81.9230769 C110.006417,81.9230769 109.260744,81.6533368 108.723668,81.1108258 C108.184194,80.5683148 107.915656,79.8265295 107.915656,78.8869853 L107.915656,78.8869853 Z M109.432576,78.0557918 L109.432576,78.8869853 C109.432576,79.4795043 109.570042,79.9288186 109.846572,80.2379589 C110.123103,80.5455839 110.493142,80.7001541 110.959887,80.7001541 C111.427431,80.7001541 111.799068,80.5455839 112.078796,80.2379589 C112.357724,79.9288186 112.496788,79.4795043 112.496788,78.8869853 L112.496788,78.0557918 C112.496788,77.4632727 112.357724,77.0086546 112.078796,76.6919373 C111.799068,76.3729469 111.427431,76.2153459 110.959887,76.2153459 C110.499536,76.2153459 110.131095,76.3729469 109.852167,76.6919373 C109.571641,77.0086546 109.432576,77.4632727 109.432576,78.0557918 L109.432576,78.0557918 Z M106.826318,81.7919954 L105.336571,81.7919954 L105.336571,78.9991244 L102.498539,78.9991244 L102.498539,81.7919954 L101,81.7919954 L101,75.1212315 L102.498539,75.1212315 L102.498539,77.7936286 L105.336571,77.7936286 L105.336571,75.1212315 L106.826318,75.1212315 L106.826318,81.7919954 Z" id="Fill-11" fill="#F9F9F9"></path>
                    <path d="M218.832151,71.4061538 L216.432122,71.4061538 L216.432122,59.2215385 L218.515725,59.2215385 L223.633011,66.8499548 L223.734748,66.8499548 L223.734748,59.2215385 L226.118756,59.2215385 L226.118756,71.4061538 L224.054378,71.4061538 L218.933888,63.7264253 L218.832151,63.7264253 L218.832151,71.4061538 Z M204.19085,66.099819 L204.19085,64.6142081 C204.19085,62.8728507 204.650669,61.5020814 205.575113,60.5027149 C206.497954,59.500905 207.771668,59 209.39305,59 C211.014432,59 212.285742,59.5033484 213.202976,60.5116742 C214.11941,61.5159276 214.578427,62.8842534 214.578427,64.6142081 L214.578427,66.099819 C214.578427,67.8151131 214.116205,69.1695928 213.194966,70.1608145 C212.272925,71.1520362 210.99841,71.6439819 209.376227,71.6439819 C207.752442,71.6439819 206.483535,71.1520362 205.567102,70.1608145 C204.647464,69.1695928 204.19085,67.8151131 204.19085,66.099819 L204.19085,66.099819 Z M206.775127,64.5808145 L206.775127,66.099819 C206.775127,67.1806335 207.009042,68.0024434 207.480076,68.5652489 C207.950309,69.1280543 208.580757,69.4106787 209.376227,69.4106787 C210.171698,69.4106787 210.804549,69.1280543 211.281191,68.5652489 C211.757031,68.0024434 211.994951,67.1806335 211.994951,66.099819 L211.994951,64.5808145 C211.994951,63.5 211.757031,62.6684163 211.281191,62.0893213 C210.804549,61.5077828 210.171698,61.219457 209.376227,61.219457 C208.591972,61.219457 207.964728,61.5077828 207.488087,62.0893213 C207.012246,62.6684163 206.775127,63.5 206.775127,64.5808145 L206.775127,64.5808145 Z M199.782518,71.4061538 L202.334753,71.4061538 L202.334753,59.2215385 L199.782518,59.2215385 L199.782518,71.4061538 Z M195.210767,71.4061538 L192.67856,71.4061538 L192.67856,61.4572851 L189.31964,61.4572851 L189.31964,59.2215385 L198.585708,59.2215385 L198.585708,61.4572851 L195.210767,61.4572851 L195.210767,71.4061538 Z M183.756955,61.7146606 L183.621573,61.7146606 L182.228498,66.4744796 L185.133207,66.4744796 L183.756955,61.7146606 Z M180.835424,71.4061538 L178.283991,71.4061538 L182.262144,59.2215385 L185.283809,59.2215385 L189.228317,71.4061538 L186.508658,71.4061538 L185.636284,68.4536652 L181.725421,68.4536652 L180.835424,71.4061538 Z M168.677464,71.4061538 L168.677464,69.6656109 L174.333074,61.5273303 L174.333074,61.4067873 L168.809642,61.4067873 L168.809642,59.2215385 L177.419628,59.2215385 L177.419628,60.9449774 L171.76562,69.0857014 L171.76562,69.2233484 L177.587854,69.2233484 L177.587854,71.4061538 L168.677464,71.4061538 Z M164.285955,71.4061538 L166.83819,71.4061538 L166.83819,59.2215385 L164.285955,59.2215385 L164.285955,71.4061538 Z M162.985806,69.1361991 L162.985806,71.4061538 L155.432442,71.4061538 L155.432442,59.2215385 L157.984677,59.2215385 L157.984677,69.1361991 L162.985806,69.1361991 Z M148.762668,61.7146606 L148.628087,61.7146606 L147.235012,66.4744796 L150.13892,66.4744796 L148.762668,61.7146606 Z M145.842739,71.4061538 L143.290505,71.4061538 L147.268658,59.2215385 L150.290323,59.2215385 L154.234831,71.4061538 L151.515973,71.4061538 L150.642798,68.4536652 L146.731134,68.4536652 L145.842739,71.4061538 Z M135.966249,66.0297738 L135.966249,69.4440724 L137.66133,69.4440724 C139.329174,69.4440724 140.163097,68.8877828 140.163097,67.7703167 C140.163097,67.2140271 139.978849,66.7856109 139.615159,66.4834389 C139.252271,66.181267 138.745189,66.0297738 138.098719,66.0297738 L135.966249,66.0297738 Z M135.966249,61.1852489 L135.966249,64.2224434 L137.476281,64.2224434 C138.930238,64.2224434 139.66002,63.7044344 139.66002,62.6684163 C139.66002,62.1903167 139.503008,61.8238009 139.188986,61.5688688 C138.874162,61.3114932 138.462408,61.1852489 137.947315,61.1852489 L135.966249,61.1852489 Z M133.446859,71.4061538 L133.446859,59.2215385 L138.550527,59.2215385 C139.635186,59.2215385 140.50756,59.4870588 141.159637,60.0156561 C141.814118,60.5450679 142.14256,61.2756561 142.14256,62.2074208 C142.14256,62.9485973 141.9495,63.5447964 141.564182,64.000905 C141.17646,64.4545701 140.677389,64.7510407 140.06136,64.8878733 L140.06136,64.9888688 C140.565238,65.0361086 141.010637,65.1704977 141.404767,65.400181 C141.795693,65.6266063 142.116926,65.9629864 142.368464,66.4044344 C142.621605,66.8499548 142.747374,67.3679638 142.747374,67.9584615 C142.747374,69.0384615 142.354045,69.8838914 141.572994,70.4939367 C140.787937,71.100724 139.785789,71.4061538 138.566548,71.4061538 L133.446859,71.4061538 Z M121.205588,66.099819 L121.205588,64.6142081 C121.205588,62.8728507 121.665407,61.5020814 122.589851,60.5027149 C123.511891,59.500905 124.787207,59 126.407788,59 C128.028368,59 129.30048,59.5033484 130.217714,60.5116742 C131.134147,61.5159276 131.593966,62.8842534 131.593966,64.6142081 L131.593966,66.099819 C131.593966,67.8151131 131.130943,69.1695928 130.208902,70.1608145 C129.287663,71.1520362 128.013148,71.6439819 126.390965,71.6439819 C124.76718,71.6439819 123.498273,71.1520362 122.58184,70.1608145 C121.662202,69.1695928 121.205588,67.8151131 121.205588,66.099819 L121.205588,66.099819 Z M123.789865,64.5808145 L123.789865,66.099819 C123.789865,67.1806335 124.02378,68.0024434 124.494814,68.5652489 C124.965047,69.1280543 125.595495,69.4106787 126.390965,69.4106787 C127.187237,69.4106787 127.820088,69.1280543 128.295928,68.5652489 C128.771769,68.0024434 129.008888,67.1806335 129.008888,66.099819 L129.008888,64.5808145 C129.008888,63.5 128.771769,62.6684163 128.295928,62.0893213 C127.820088,61.5077828 127.187237,61.219457 126.390965,61.219457 C125.60671,61.219457 124.979466,61.5077828 124.502825,62.0893213 C124.026183,62.6684163 123.789865,63.5 123.789865,64.5808145 L123.789865,64.5808145 Z M120.374069,69.1361991 L120.374069,71.4061538 L112.820706,71.4061538 L112.820706,59.2215385 L115.37294,59.2215385 L115.37294,69.1361991 L120.374069,69.1361991 Z M110.970216,63.180724 L108.500492,63.180724 C108.42439,62.579638 108.170448,62.1039819 107.746678,61.7561991 C107.322908,61.4100452 106.78939,61.2357466 106.153334,61.2357466 C105.357864,61.2357466 104.725012,61.5134842 104.257183,62.0730317 C103.786149,62.6301357 103.552234,63.4552036 103.552234,64.5466063 L103.552234,66.0134842 C103.552234,67.0486878 103.763719,67.8713122 104.18829,68.478914 C104.614463,69.0889593 105.274552,69.3911312 106.169356,69.3911312 C106.896734,69.3911312 107.479919,69.1948416 107.923716,68.8030769 C108.366712,68.4113122 108.586208,67.9299548 108.586208,67.3622624 L108.586208,66.7123077 L106.235044,66.7123077 L106.235044,64.7681448 L110.986237,64.7681448 L110.986237,67.1749321 C110.986237,67.5943891 110.93657,68.0089593 110.835634,68.4113122 C110.733898,68.8144796 110.560064,69.2119457 110.314934,69.6069683 C110.067401,69.9979186 109.764593,70.3448869 109.400904,70.6478733 C109.034811,70.9476018 108.574993,71.1903167 108.016641,71.3727602 C107.455086,71.5552036 106.831046,71.6439819 106.136512,71.6439819 C105.263337,71.6439819 104.493501,71.5038914 103.827004,71.2188235 C103.160507,70.9329412 102.624586,70.5362896 102.217638,70.0239819 C101.806685,69.5116742 101.503878,68.9211765 101.302807,68.2492308 C101.099334,67.5772851 101,66.8393665 101,66.0297738 L101,64.5303167 C101,62.8451584 101.457415,61.5020814 102.377053,60.5027149 C103.292685,59.500905 104.561592,59 106.186178,59 C106.9456,59 107.633726,59.1172851 108.250556,59.3494118 C108.864983,59.5815385 109.363253,59.898371 109.745367,60.2950226 C110.125078,60.6957466 110.422278,61.1404525 110.634564,61.6364706 C110.846049,62.1316742 110.959,62.6464253 110.970216,63.180724 L110.970216,63.180724 Z" id="Fill-13" fill="#F9F9F9"></path>
                    <path d="M73.5371229,10.2497257 C81.3265034,16.4437965 87.004468,25.1849469 89.3110167,35.2123805 L89.545176,36.2302566 L88.5010167,36.2302566 L79.4277423,36.2302566 L78.8072998,36.2302566 L78.6312821,35.6281327 C76.5230521,28.4241504 72.1122556,22.2006106 66.2487158,17.8105221 C60.5293352,13.5279558 53.4249105,10.9912301 45.7231406,10.9912301 C36.2580078,10.9912301 27.6872998,14.8293717 21.4828751,21.0337965 C15.2784503,27.2374248 11.4403087,35.8081327 11.4403087,45.2740619 C11.4403087,54.7391947 15.2784503,63.3099027 21.4828751,69.5143274 C27.6872998,75.7179558 36.2580078,79.5568938 45.7231406,79.5568938 C53.4249105,79.5568938 60.5293352,77.0201681 66.2487158,72.7368053 C72.1122556,68.3467168 76.5230521,62.123177 78.6312821,54.9191947 C78.8861494,54.0486637 79.1075653,53.163 79.293937,52.2645929 L79.293937,52.2614071 C79.4142025,51.6839735 79.5193352,51.0945929 79.6109282,50.4956549 L62.7275653,50.4956549 L61.6571229,50.4956549 L61.9247335,49.4586637 C62.0983618,48.7848584 62.2313706,48.093531 62.3197777,47.3878673 C62.404999,46.712469 62.4488043,46.0076018 62.4488043,45.2740619 C62.4488043,44.5405221 62.404999,43.8348584 62.3197777,43.1594602 C62.2313706,42.4545929 62.0983618,41.7632655 61.9247335,41.0894602 L61.6571229,40.052469 L62.7275653,40.052469 L89.6176538,40.052469 L90.4499547,40.052469 L90.4499547,40.8847699 L90.4499547,41.2439735 C90.4475653,46.3094602 90.4475653,50.3905221 89.3110167,55.3357434 C87.004468,65.3623805 81.3265034,74.103531 73.5371229,80.2983982 C65.8990698,86.3706106 56.233229,90.0000796 45.7231406,90.0000796 C21.0257069,90.0000796 0.997122855,69.9714956 0.997122855,45.2740619 C0.997122855,20.5766283 21.0257069,0.547247788 45.7231406,0.547247788 C56.233229,0.547247788 65.8990698,4.17671681 73.5371229,10.2497257 Z M60.8399823,23.0774135 C65.3224818,26.07809 68.8606232,30.3672689 70.9158024,35.4084054 L71.3815789,36.5514446 L70.1411086,36.5514446 L60.1909362,36.5514446 L59.7515697,36.5514446 L59.5010747,36.187389 C57.9596903,33.9418496 55.8821026,32.0881867 53.4523814,30.8116075 C51.1122942,29.5811314 48.4408814,28.8848155 45.6038058,28.8848155 C40.9644469,28.8848155 36.7628539,30.7535812 33.7209006,33.7741297 C30.6797476,36.7946782 28.7982343,40.9678045 28.7982343,45.5765256 C28.7982343,50.1852468 30.6797476,54.358373 33.7209006,57.3789216 C36.7628539,60.400265 40.9644469,62.2690306 45.6038058,62.2690306 C48.4408814,62.2690306 51.1122942,61.5719198 53.4523814,60.3422386 C55.8821026,59.0648646 57.9596903,57.2119965 59.5010747,54.9664571 L59.7515697,54.6024016 L60.1909362,54.6024016 L70.1411086,54.6024016 L71.3815789,54.6024016 L70.9158024,55.7446458 C68.8606232,60.7865772 65.3224818,65.0757561 60.8399823,68.0756377 C56.4879323,70.9904671 51.2451446,72.6923077 45.6038058,72.6923077 C38.0665482,72.6923077 31.2415606,69.6558615 26.3012876,64.74906 C21.3610146,59.8422584 18.3046559,53.0627167 18.3046559,45.5765256 C18.3046559,38.0903346 21.3610146,31.3115878 26.3012876,26.4047862 C31.2415606,21.4971897 38.0665482,18.4615385 45.6038058,18.4615385 C51.2451446,18.4615385 56.4879323,20.1633791 60.8399823,23.0774135 Z" id="形状结合" fill="#305EE9"></path>
                    <path d="M45.0923637,53.9404857 L52.3473412,53.9404857 C52.6596963,53.9404857 52.9154026,53.6871397 52.9154026,53.3834393 L52.9154026,53.3826526 C52.9154026,53.0781654 52.6573359,52.8256062 52.3473412,52.8256062 L45.0923637,52.8256062 C44.7815823,52.8256062 44.5235156,53.075805 44.5235156,53.3826526 L44.5235156,53.3834393 C44.5235156,53.6902869 44.7792219,53.9404857 45.0923637,53.9404857 M45.6863891,51.70994 L49.8186027,51.70994 C50.1309578,51.70994 50.3866641,51.4589545 50.3866641,51.1528937 C50.3866641,50.8460462 50.130171,50.5950606 49.8186027,50.5950606 L45.6863891,50.5950606 C45.3732473,50.5950606 45.1167542,50.8452594 45.1167542,51.1528937 C45.1167542,51.4597413 45.3732473,51.70994 45.6863891,51.70994 M42.9939986,49.4801812 L44.6730054,49.4801812 C44.9853605,49.4801812 45.2410668,49.2260485 45.2410668,48.9223481 L45.2410668,48.9223481 C45.2410668,48.6186477 44.9822133,48.364515 44.6730054,48.364515 L42.9939986,48.364515 C42.6832171,48.364515 42.4243637,48.6155006 42.4243637,48.9223481 L42.4243637,48.9223481 C42.4243637,49.2291957 42.6808568,49.4801812 42.9939986,49.4801812 M40.5573144,47.2496356 L42.4589824,47.2496356 C42.7721242,47.2496356 43.0278305,46.9962897 43.0278305,46.6925893 L43.0278305,46.6918025 C43.0278305,46.3873153 42.7689771,46.1347562 42.4589824,46.1347562 L40.5573144,46.1347562 C40.2473197,46.1347562 39.9884662,46.3857417 39.9884662,46.6918025 L39.9884662,46.6925893 C39.9884662,46.99865 40.2441725,47.2496356 40.5573144,47.2496356 M44.6604168,47.2496356 L45.6698666,47.2496356 C45.9837952,47.2496356 46.2387147,46.9955029 46.2387147,46.6925893 L46.2387147,46.6918025 C46.2387147,46.3888889 45.9790745,46.1347562 45.6698666,46.1347562 L44.6604168,46.1347562 C44.3512089,46.1347562 44.0923555,46.3849549 44.0923555,46.6918025 L44.0923555,46.6925893 C44.0923555,46.99865 44.347275,47.2496356 44.6604168,47.2496356 M39.1458157,45.01909 L46.6234543,45.01909 C46.937383,45.01909 47.1930893,44.7688912 47.1930893,44.4620437 C47.1930893,44.1551961 46.9365962,43.9042106 46.6234543,43.9042106 L39.1458157,43.9042106 C38.8334606,43.9042106 38.5777543,44.1544093 38.5777543,44.4620437 C38.5777543,44.7688912 38.8334606,45.01909 39.1458157,45.01909 M38.0734228,42.7893311 L47.7816071,42.7893311 C48.0939622,42.7893311 48.3504552,42.5328381 48.3504552,42.231498 L48.3504552,42.231498 C48.3504552,41.930158 48.0892414,41.6736649 47.7816071,41.6736649 L38.0734228,41.6736649 C37.7657885,41.6736649 37.5045747,41.9246505 37.5045747,42.231498 L37.5045747,42.231498 C37.5045747,42.5383456 37.7610678,42.7893311 38.0734228,42.7893311 M47.7918354,40.5587855 L50.4071206,40.5587855 C50.7194757,40.5587855 50.9767555,40.3070132 50.9767555,40.0017392 L50.9767555,40.0009524 C50.9767555,39.6956785 50.7186889,39.4439061 50.4071206,39.4439061 L47.7918354,39.4439061 C47.4794803,39.4439061 47.2229872,39.6941049 47.2229872,40.0009524 L47.2229872,40.0017392 C47.2229872,40.3085868 47.4786935,40.5587855 47.7918354,40.5587855 M38.9916051,40.5587855 L45.8445336,40.5587855 C46.1576755,40.5587855 46.4133818,40.3078 46.4133818,40.0017392 L46.4133818,40.0009524 C46.4133818,39.6948917 46.1576755,39.4439061 45.8445336,39.4439061 L38.9916051,39.4439061 C38.6792501,39.4439061 38.422757,39.6941049 38.422757,40.0009524 L38.422757,40.0017392 C38.422757,40.3085868 38.6784633,40.5587855 38.9916051,40.5587855 M46.5746734,34.6153846 C47.5502913,34.6153846 48.4960111,34.7436312 49.3976708,34.9828149 L48.7635193,34.9828149 C48.4527378,34.9828149 48.1946711,35.2338004 48.1946711,35.540648 L48.1946711,35.540648 C48.1946711,35.8474955 48.4511642,36.0984811 48.7635193,36.0984811 L52.0821935,36.0984811 C52.6408134,36.4234248 53.1687485,36.7971493 53.6597046,37.2133605 L51.1931224,37.2133605 C50.8815541,37.2133605 50.6242742,37.4643461 50.6242742,37.7711936 C50.6242742,38.0780411 50.8799805,38.3282399 51.1931224,38.3282399 L54.7958273,38.3282399 C56.1522508,39.8656248 57.0838085,41.7846021 57.4087521,43.9042106 L55.5456368,43.9042106 C55.2340685,43.9042106 54.9767886,44.1551961 54.9767886,44.4620437 C54.9767886,44.7688912 55.2332817,45.01909 55.5456368,45.01909 L57.5220497,45.01909 C57.5314912,45.2039853 57.5354251,45.3896674 57.5354251,45.5769231 C57.5354251,45.7641788 57.5314912,45.9498609 57.5220497,46.1347562 L54.3788293,46.1347562 C54.0696214,46.1347562 53.8091944,46.3849549 53.8091944,46.6918025 L53.8091944,46.6925893 C53.8091944,46.9994368 54.0649007,47.2496356 54.3788293,47.2496356 L57.4087521,47.2496356 C57.3513166,47.6280809 57.2734245,48.0002319 57.1782231,48.364515 L55.1608972,48.364515 C54.8493289,48.364515 54.5912622,48.6155006 54.5912622,48.9223481 L54.5912622,48.9223481 C54.5912622,49.2291957 54.8469685,49.4801812 55.1608972,49.4801812 L56.8202343,49.4801812 C55.9217217,51.8358262 54.234847,53.8020109 52.0821935,55.0553651 L46.6037846,55.0553651 C46.2922163,55.0553651 46.0349365,55.3063506 46.0349365,55.6124114 L46.0349365,55.6131982 C46.0349365,55.9200457 46.2906428,56.1702445 46.6037846,56.1702445 L49.3976708,56.1702445 C48.4967979,56.410215 47.5502913,56.5384615 46.5746734,56.5384615 C40.5203353,56.5384615 35.6123482,51.6296876 35.6123482,45.5769231 C35.6123482,42.7979858 36.6469752,40.2605927 38.3527328,38.3282399 L44.4944044,38.3282399 C44.8083331,38.3282399 45.0632526,38.0772544 45.0632526,37.7711936 C45.0632526,37.4643461 44.8075463,37.2133605 44.4944044,37.2133605 L39.4896423,37.2133605 C39.9798116,36.7971493 40.5069599,36.4234248 41.0663666,36.0984811 L46.2229789,36.0984811 C46.535334,36.0984811 46.7910403,35.8474955 46.7910403,35.540648 L46.7910403,35.540648 C46.7910403,35.2338004 46.535334,34.9828149 46.2229789,34.9828149 L43.7508892,34.9828149 C44.6509754,34.7436312 45.5982688,34.6153846 46.5746734,34.6153846" id="Fill-15" fill="#EEEEEE"></path>
                </g>
            </g>
        </g>
    </g>
</svg>