<?xml version="1.0" encoding="UTF-8"?>
<svg width="12px" height="12px" viewBox="0 0 12 12" version="1.1" xmlns="http://www.w3.org/2000/svg" xmlns:xlink="http://www.w3.org/1999/xlink">
    <!-- Generator: Sketch 55.2 (78181) - https://sketchapp.com -->
    <title>language-zh</title>
    <desc>Created with Sketch.</desc>
    <g id="Page-1" stroke="none" stroke-width="1" fill="none" fill-rule="evenodd">
        <g id="Nav" transform="translate(-1160.000000, -81.000000)" fill-rule="nonzero">
            <g id="编组-4">
                <g id="language-zh" transform="translate(1158.000000, 79.000000)">
                    <rect id="矩形" fill="#000000" opacity="0" x="0" y="0" width="16" height="16"></rect>
                    <path d="M8.50629441,8.3196262 L8.50629441,6.62494378 L10.3574192,6.62494378 L10.3574192,8.3196262 L8.50629441,8.3196262 Z M5.86362362,8.3196262 L5.86362362,6.62494378 L7.70746705,6.62494378 L7.70746705,8.3196262 L5.86362362,8.3196262 Z M12.7999386,2 C13.4628129,2 13.9999577,2.53714473 13.9999577,3.19989205 L13.9999577,12.7999809 C13.9999577,13.4626859 13.4627918,14 12.7999386,14 L3.20001905,14 C2.5372929,14 2,13.4627071 2,12.7999809 L2,3.19989205 C2,2.53714473 2.5372929,2 3.20001905,2 L12.7999386,2 Z M8.50659075,9.07461754 L11.1342333,9.07461754 L11.1342333,5.86950793 L8.50661192,5.86950793 L8.50661192,4.60391476 L7.70746705,4.60391476 L7.70746705,5.8699736 L5.08710584,5.8699736 L5.08710584,9.07461754 L7.70744588,9.07461754 L7.70744588,11.5468972 L8.50659075,11.5468972 L8.50659075,9.07461754 Z" id="形状结合" fill="#EEEEEE"></path>
                </g>
            </g>
        </g>
    </g>
</svg>