<?xml version="1.0" encoding="UTF-8"?>
<svg width="48px" height="48px" viewBox="0 0 48 48" version="1.1" xmlns="http://www.w3.org/2000/svg" xmlns:xlink="http://www.w3.org/1999/xlink">
    <!-- Generator: Sketch 55.2 (78181) - https://sketchapp.com -->
    <title>arrow-lg</title>
    <desc>Created with Sketch.</desc>
    <g id="Page-1" stroke="none" stroke-width="1" fill="none" fill-rule="evenodd">
        <g id="Home-PC" transform="translate(-190.000000, -2970.000000)" fill-rule="nonzero">
            <g id="编组-12" transform="translate(130.000000, 2442.000000)">
                <g id="arrow-lg" transform="translate(84.000000, 552.000000) rotate(-90.000000) translate(-84.000000, -552.000000) translate(60.000000, 528.000000)">
                    <rect id="矩形" fill="#000000" opacity="0" x="0" y="0" width="48" height="48"></rect>
                    <path d="M24,0 C10.8,0 0,10.8 0,24 C0,37.2 10.8,48 24,48 C37.2,48 48,37.2 48,24 C48,10.8 37.2,0 24,0 Z M24,44 C13,44 3.99999998,35 3.99999998,24 C3.99999998,13 13,3.99999998 24,3.99999998 C35,3.99999998 44,13 44,24 C44,35 35,44 24,44 Z M37.2,18.6 C36.4,17.8 35.2,17.8 34.4,18.6 L24,29 L13.6,18.6 C12.8,17.8 11.6,17.8 10.8,18.6 C9.99999998,19.4 9.99999998,20.6 10.8,21.4 L22.6,33.2 C23.4,34 24.6,34 25.4,33.2 L37.2,21.4 C38,20.8 38,19.4 37.2,18.6 Z" id="形状" fill="#5EABFF"></path>
                </g>
            </g>
        </g>
    </g>
</svg>