<?xml version="1.0" encoding="UTF-8"?>
<svg width="12px" height="12px" viewBox="0 0 12 12" version="1.1" xmlns="http://www.w3.org/2000/svg" xmlns:xlink="http://www.w3.org/1999/xlink">
    <!-- Generator: Sketch 55.2 (78181) - https://sketchapp.com -->
    <title>形状</title>
    <desc>Created with Sketch.</desc>
    <g id="Page-1" stroke="none" stroke-width="1" fill="none" fill-rule="evenodd">
        <g id="Home-iPhone-XS-Max" transform="translate(-178.000000, -115.000000)" fill="#EEEEEE" fill-rule="nonzero">
            <g id="编组-4" transform="translate(167.000000, 109.000000)">
                <g id="菜单" transform="translate(11.000000, 6.000000)">
                    <g id="编组">
                        <path d="M11.25,6.75 L0.75,6.75 C0.3375,6.75 0,6.4125 0,6 C0,5.5875 0.3375,5.25 0.75,5.25 L11.25,5.25 C11.6625,5.25 12,5.5875 12,6 C12,6.4125 11.6625,6.75 11.25,6.75 Z M11.25,2.34375 L0.75,2.34375 C0.3375,2.34375 0,2.00625 0,1.59375 C0,1.18125 0.3375,0.84375 0.75,0.84375 L11.25,0.84375 C11.6625,0.84375 12,1.18125 12,1.59375 C12,2.00625 11.6625,2.34375 11.25,2.34375 Z M0.75,9.65625 L11.25,9.65625 C11.6625,9.65625 12,9.99375 12,10.40625 C12,10.81875 11.6625,11.15625 11.25,11.15625 L0.75,11.15625 C0.3375,11.15625 0,10.81875 0,10.40625 C0,9.99375 0.3375,9.65625 0.75,9.65625 Z" id="形状"></path>
                    </g>
                </g>
            </g>
        </g>
    </g>
</svg>