<?xml version="1.0" encoding="UTF-8"?>
<svg width="32px" height="32px" viewBox="0 0 32 32" version="1.1" xmlns="http://www.w3.org/2000/svg" xmlns:xlink="http://www.w3.org/1999/xlink">
    <!-- Generator: Sketch 55.2 (78181) - https://sketchapp.com -->
    <title>play</title>
    <desc>Created with Sketch.</desc>
    <g id="Page-1" stroke="none" stroke-width="1" fill="none" fill-rule="evenodd">
        <g id="Perspective-PC" transform="translate(-274.000000, -1523.000000)" fill="#5EABFF">
            <g id="编组-7复制-6" transform="translate(130.000000, 1407.000000)">
                <g id="play" transform="translate(144.000000, 116.000000)">
                    <path d="M16,32 C7.163444,32 0,24.836556 0,16 C0,7.163444 7.163444,0 16,0 C24.836556,0 32,7.163444 32,16 C32,24.836556 24.836556,32 16,32 Z M16,30 C23.7319865,30 30,23.7319865 30,16 C30,8.2680135 23.7319865,2 16,2 C8.2680135,2 2,8.2680135 2,16 C2,23.7319865 8.2680135,30 16,30 Z" id="形状结合"></path>
                    <path d="M13,20.9998221 C12.817,20.9998221 12.635,20.9498221 12.474,20.8508221 C12.1795647,20.6681184 12.0003351,20.3463371 12,19.9998221 L12,11.9998221 C12,11.6528221 12.18,11.3308221 12.474,11.1488221 C12.7690638,10.9674089 13.1367667,10.950781 13.447,11.1048221 L21.447,15.1048221 C21.7857695,15.274511 21.9996965,15.6209301 21.9996965,15.9998221 C21.9996965,16.378714 21.7857695,16.7251332 21.447,16.8948221 L13.447,20.8948221 C13.307,20.9648221 13.152,20.9998221 13,20.9998221 Z" id="路径"></path>
                </g>
            </g>
        </g>
    </g>
</svg>