<?xml version="1.0" encoding="UTF-8"?>
<svg width="34px" height="30px" viewBox="0 0 34 30" version="1.1" xmlns="http://www.w3.org/2000/svg" xmlns:xlink="http://www.w3.org/1999/xlink">
    <!-- Generator: Sketch 55.2 (78181) - https://sketchapp.com -->
    <title>twitter</title>
    <desc>Created with Sketch.</desc>
    <g id="Page-1" stroke="none" stroke-width="1" fill="none" fill-rule="evenodd">
        <g id="Home-PC" transform="translate(-926.000000, -3492.000000)" fill="#5EABFF">
            <g id="编组-9复制" transform="translate(0.000000, 3302.000000)">
                <g id="twitter" transform="translate(925.000000, 187.000000)">
                    <g id="编组">
                        <path d="M31.5,11.7 L31.5,10.8 C32.85,9.74999999 34.05,8.55 34.95,7.04999999 C33.75,7.65 32.4,7.94999999 30.9,8.1 C32.4,7.2 33.45,5.85 33.9,4.05 C32.55,4.80000001 31.05,5.4 29.55,5.69999999 C28.35,4.19999998 26.55,3.30000001 24.45,3.30000001 C20.55,3.30000001 17.55,6.45000001 17.55,10.5 C17.55,11.1 17.55,11.7 17.7,12.15 C12,12 6.90000001,9 3.44999999,4.5 C2.84999998,5.55000001 2.55000001,6.90000001 2.55000001,8.25000001 C2.55000001,10.8 3.74999998,13.05 5.69999999,14.4 C4.5,14.4 3.44999999,14.1 2.40000001,13.5 L2.40000001,13.65 C2.40000001,17.25 4.80000002,20.25 7.94999999,21 C7.49999999,21 6.89999998,21.15 6.14999999,21.15 C5.69999999,21.15 5.24999999,21.15 4.79999999,21 C5.69999999,24 8.24999998,26.1 11.25,26.1 C9,28.05 6.00000001,29.25 2.7,29.25 C2.09999999,29.25 1.64999999,29.25 1.05000001,29.1 C4.05000001,31.2 7.80000001,32.4 11.7,32.4 C24.45,32.55 31.5,21.45 31.5,11.7 Z" id="twitter"></path>
                    </g>
                </g>
            </g>
        </g>
    </g>
</svg>