<?xml version="1.0" encoding="UTF-8"?>
<svg width="32px" height="32px" viewBox="0 0 32 32" version="1.1" xmlns="http://www.w3.org/2000/svg" xmlns:xlink="http://www.w3.org/1999/xlink">
    <!-- Generator: Sketch 55.2 (78181) - https://sketchapp.com -->
    <title>voice</title>
    <desc>Created with Sketch.</desc>
    <g id="Page-1" stroke="none" stroke-width="1" fill="none" fill-rule="evenodd">
        <g id="Perspective-PC" transform="translate(-170.000000, -1114.000000)" fill="#5EABFF">
            <g id="编组-7复制-3" transform="translate(130.000000, 1037.000000)">
                <g id="voice" transform="translate(40.000000, 77.000000)">
                    <path d="M16,32 C7.163444,32 0,24.836556 0,16 C0,7.163444 7.163444,0 16,0 C24.836556,0 32,7.163444 32,16 C32,24.836556 24.836556,32 16,32 Z M16,30 C23.7319865,30 30,23.7319865 30,16 C30,8.2680135 23.7319865,2 16,2 C8.2680135,2 2,8.2680135 2,16 C2,23.7319865 8.2680135,30 16,30 Z" id="形状结合"></path>
                    <path d="M18.4852814,8 C20.6568542,10.1715729 22,13.1715729 22,16.4852814 C22,19.7989899 20.6568542,22.7989899 18.4852814,24.9705627 L17.0710678,23.5563492 C18.8807119,21.7467051 20,19.2467051 20,16.4852814 C20,13.7238576 18.8807119,11.2238576 17.0710678,9.41421356 L18.4852814,8 Z M14.9497475,11.5355339 C16.2164983,12.8022847 17,14.5522847 17,16.4852814 C17,18.418278 16.2164983,20.168278 14.9497475,21.4350288 L13.5355339,20.0208153 C14.4403559,19.1159932 15,17.8659932 15,16.4852814 C15,15.1045695 14.4403559,13.8545695 13.5355339,12.9497475 L14.9497475,11.5355339 Z M11.4142136,15.0710678 C11.7761424,15.4329966 12,15.9329966 12,16.4852814 C12,17.0375661 11.7761424,17.5375661 11.4142136,17.8994949 L10,16.4852814 L11.4142136,15.0710678 Z" id="形状结合"></path>
                </g>
            </g>
        </g>
    </g>
</svg>