<?xml version="1.0" encoding="UTF-8"?>
<svg width="36px" height="30px" viewBox="0 0 36 30" version="1.1" xmlns="http://www.w3.org/2000/svg" xmlns:xlink="http://www.w3.org/1999/xlink">
    <!-- Generator: Sketch 55.2 (78181) - https://sketchapp.com -->
    <title>wechat</title>
    <desc>Created with Sketch.</desc>
    <g id="Page-1" stroke="none" stroke-width="1" fill="none" fill-rule="evenodd">
        <g id="Home-PC" transform="translate(-1031.000000, -3492.000000)" fill="#5EABFF">
            <g id="编组-9复制" transform="translate(0.000000, 3302.000000)">
                <g id="twitter" transform="translate(925.000000, 187.000000)">
                    <g id="编组-13" transform="translate(106.033998, 0.000000)">
                        <path d="M35.2781732,19.1033444 C34.3655644,17.0353639 32.6437459,15.3929678 30.6446981,14.3814556 C27.117143,12.5952 22.7309264,12.6056898 19.2123625,14.4264117 C16.7682493,15.6806868 14.7272425,17.9284917 14.1488074,20.663321 C13.6722727,22.6773542 14.0993557,24.8457366 15.1678122,26.5990244 C16.7577595,29.2394459 19.6319527,30.9252995 22.6170376,31.4662712 C24.7794259,31.9053424 27.016741,31.6445971 29.1176893,31.0391883 C30.3794571,31.5277112 31.5033595,32.3189385 32.7261654,32.9063649 C32.4106269,31.8494009 32.0728819,30.7991939 31.7131547,29.756441 C33.0858142,28.7823922 34.3295996,27.567079 35.0758708,26.0415688 C36.190782,23.9211395 36.2582161,21.2897093 35.2781732,19.1033444 L35.2781732,19.1033444 Z M20.4066961,4.91819707 C16.6678474,2.81425171 12.0118942,2.49806048 7.989822,3.95164098 C5.34640346,4.9032117 2.95473907,6.67148488 1.47718201,9.0766361 C0.135991756,11.2495142 -0.366017988,13.9588683 0.279851268,16.4449405 C0.928717622,19.2022478 2.84384738,21.5144897 5.16807762,23.0579824 C4.71851665,24.3317385 4.29143372,25.6039961 3.88682884,26.8867434 C5.34790201,26.1224897 6.80897518,25.3237698 8.27154687,24.5475278 C10.0248347,25.109479 11.8905127,25.3852098 13.7561908,25.3237698 C13.2709803,23.9027415 13.1398117,22.3847864 13.3740639,20.9015883 C13.7112347,18.8470946 14.8351371,16.9679298 16.3621459,15.5757893 C18.9486201,13.1556527 22.612542,12.1351492 26.0966395,12.3824078 C25.4432776,9.18303222 23.1954727,6.47967221 20.3662357,4.91969562 L20.4066961,4.91969562 L20.4066961,4.91819707 Z M23.00366,19.887079 C22.6904659,20.8641249 21.2713517,21.157838 20.5835235,20.4145639 C19.825264,19.7267356 20.1204757,18.289639 21.1155039,17.982439 C22.2154298,17.5178927 23.4861888,18.7871532 23.00366,19.887079 Z M30.189143,20.0249444 C29.8055176,20.9030869 28.4793127,21.1083864 27.8274493,20.4295493 C27.5142552,20.1433288 27.4228444,19.7117503 27.3119527,19.3356176 C27.4678005,18.6492878 27.9413381,17.9374829 28.7055918,17.9045151 C29.76206,17.7576585 30.7076366,19.0628839 30.1666649,20.0264429 L30.189143,20.0264429 L30.189143,20.0249444 Z M19.4671137,10.3533893 C19.479102,11.7934829 17.5564796,12.6926049 16.4775332,11.715559 C15.3581264,10.9138419 15.6758161,8.96274731 16.9900327,8.55964098 C18.1663839,8.08760195 19.5570259,9.07513755 19.4641166,10.3354068 L19.4671137,10.3533893 Z M10.3874805,10.7190322 C10.1297322,11.9703103 8.45286981,12.5742205 7.47132833,11.73504 C6.33393906,10.9333229 6.65312735,8.94626341 7.98832345,8.54165854 C9.29654589,8.03815024 10.7830942,9.36585367 10.3874805,10.7190322 Z" id="wechat"></path>
                    </g>
                </g>
            </g>
        </g>
    </g>
</svg>